# xmcd
#
# Track frame offsets:
#	150
#	14322
#	28336
#	42377
#	57713
#	74885
#	86681
#	99699
#	111851
#	127301
#	142915
#
# Disc length: 2098 seconds
#
# Revision: 1
# Processed by: cddbd v1.5.1PL2 Copyright (c) Steve Scherf et al.
# Submitted via: dBpowerAMP V4.0
#
DISCID=ad08300b
DTITLE=Charlie Louvin - Charlie Louvin and Friends
DYEAR=1992
DGENRE=Country
TTITLE0=Makin' Music with Willie Nelson and Waylon Jennings
TTITLE1=Just Beyond The Pain with Crystal Gayle
TTITLE2=Memories Burnin'
TTITLE3=This Darn Pain with Willie Nelson
TTITLE4=Old Dreams
TTITLE5=Are There Any Lonely Women Here Tonight with Charlie Daniels
TTITLE6=Ain't You Even Gonna Cry
TTITLE7=Back In Harmony with Tanya Tucker
TTITLE8=Country Boy's Dream with Waylon Jennings and George Jones
TTITLE9=Takes Love To Know Love with Melba Montgomery
TTITLE10=Precious Time
EXTD=
EXTT0=
EXTT1=
EXTT2=
EXTT3=
EXTT4=
EXTT5=
EXTT6=
EXTT7=
EXTT8=
EXTT9=
EXTT10=
PLAYORDER=
